<svg width="32" height="32" viewBox="0 0 32 32" fill="none" xmlns="http://www.w3.org/2000/svg">
<circle cx="16" cy="16" r="15.25" fill="#E2F5EA" stroke="#219653" stroke-width="1.5"/>
<path fill-rule="evenodd" clip-rule="evenodd" d="M16.3554 24.1774C12.0353 24.1774 8.5332 20.6753 8.5332 16.3552C8.5332 12.0351 12.0353 8.53296 16.3554 8.53296C20.6755 8.53296 24.1776 12.0351 24.1776 16.3552C24.1776 20.6753 20.6755 24.1774 16.3554 24.1774ZM21.6173 19.9995C22.3349 18.9653 22.7555 17.7094 22.7555 16.3552C22.7555 12.8206 19.8901 9.95522 16.3555 9.95522C12.8208 9.95522 9.95546 12.8206 9.95546 16.3552C9.95546 17.7092 10.3759 18.9651 11.0935 19.9992C11.8921 18.9443 13.7665 18.4903 16.3391 18.4884C14.7547 18.4806 13.5113 17.3616 13.5113 14.9329C13.5113 13.337 14.6342 12.0884 16.3557 12.0884C18.0725 12.0884 19.2002 13.4549 19.2002 15.0751C19.2002 17.3991 17.9419 18.4808 16.3723 18.4884C18.9446 18.4904 20.8188 18.9445 21.6173 19.9995ZM20.5969 21.148C20.389 20.3995 18.8938 19.9106 16.3553 19.9106C13.8171 19.9106 12.3219 20.3994 12.1137 21.1478C13.243 22.148 14.7283 22.7552 16.3555 22.7552C17.9825 22.7552 19.4677 22.1481 20.5969 21.148ZM14.9332 14.9329C14.9332 16.5466 15.515 17.0663 16.3554 17.0663C17.1929 17.0663 17.7777 16.5673 17.7777 15.0752C17.7777 14.1866 17.2199 13.5107 16.3554 13.5107C15.455 13.5107 14.9332 14.0908 14.9332 14.9329Z" fill="#219653"/>
</svg>
